<svg width="214" height="37" viewBox="0 0 214 37" fill="none" xmlns="http://www.w3.org/2000/svg">
<path d="M17.6415 29.4025C18.7315 29.4025 19.4874 29.297 19.9093 29.0861L20.0148 29.1124L19.7511 35.7313H0V0.474659C0.474659 0.509819 1.00206 0.536189 1.5822 0.553769L3.42809 0.606509C4.65869 0.641669 5.99477 0.659249 7.43633 0.659249C11.4621 0.659249 15.444 0.588929 19.3819 0.448289C19.1885 1.99533 19.0918 4.06097 19.0918 6.64523C19.0918 6.92651 19.1094 7.13747 19.1446 7.27811L19.0918 7.35722C18.1777 7.09352 16.8768 6.96167 15.1891 6.96167H6.88256V13.686H13.1322C15.066 13.686 16.2263 13.6333 16.6131 13.5278L16.6922 20.0412C15.8483 19.9533 14.7584 19.9093 13.4223 19.9093H6.88256V29.4025H17.6415Z" fill="#5D6F80"/>
<path d="M43.0621 3.21713C43.4313 2.44362 43.6159 1.87227 43.6159 1.50309C43.6159 1.11633 43.5807 0.835049 43.5104 0.659249H53.0036C52.8102 0.870208 52.5641 1.12512 52.2652 1.42398C51.9664 1.70526 51.6324 2.04807 51.2632 2.45241C50.3842 3.43688 49.5755 4.57958 48.8372 5.8805L42.482 17.4833L48.4152 28.6378L49.1272 30.0881C50.4633 32.8658 51.5972 34.7468 52.5289 35.7313H43.9323C43.862 35.116 43.5632 34.2897 43.0358 33.2525L37.8673 23.3374C34.2282 30.7034 32.3647 34.5007 32.2768 34.7292C32.1889 35.0281 32.1186 35.3621 32.0659 35.7313H23.4693C24.1197 35.0632 24.7878 34.1227 25.4734 32.9097L28.6378 27.2929L34.2546 17.7733L26.871 3.87638C26.0799 2.38209 25.3855 1.30971 24.7878 0.659249H33.6481C33.5777 0.835049 33.5426 1.02843 33.5426 1.23939C33.5426 1.71405 33.7623 2.3733 34.2018 3.21713L38.6056 12.0247L43.0621 3.21713Z" fill="#5D6F80"/>
<path d="M74.2578 0C77.5452 0 80.3492 0.571349 82.6698 1.71405V9.78325L82.6171 9.83599C81.6326 8.32412 79.5581 7.32206 76.3938 6.82982C75.462 6.6716 74.2842 6.59249 72.8602 6.59249C71.4362 6.59249 70.0386 6.86498 68.6674 7.40996C67.2961 7.93736 66.171 8.69329 65.292 9.67777C63.5867 11.594 62.7341 14.3277 62.7341 17.8788C62.7341 22.0101 63.8153 25.0866 65.9776 27.1083C67.7708 28.796 70.1441 29.6398 73.0975 29.6398C76.4377 29.6398 79.145 28.9278 81.2195 27.5039C81.9754 26.994 82.6171 26.3612 83.1445 25.6052L83.2236 25.658V33.0416C80.5338 35.2742 76.9124 36.3905 72.3592 36.3905C66.9973 36.3905 62.7956 34.6853 59.7543 31.2748C56.836 28.0225 55.3769 23.7154 55.3769 18.3535C55.3769 12.6752 56.9767 8.20106 60.1762 4.93118C63.4109 1.64373 68.1048 0 74.2578 0Z" fill="#5D6F80"/>
<path d="M85.4738 23.2888V13.7584H101.043V4.228L121.478 18.5236L101.043 31.2308V23.2888H85.4738Z" fill="#3AB65B" stroke="#3AB65B"/>
<path d="M133.036 35.8895C132.193 35.784 130.021 35.7313 126.523 35.7313H125.679V6.56612H120.458C118.911 6.56612 117.997 6.64523 117.715 6.80345C117.434 6.96167 117.214 7.10231 117.056 7.22537L116.977 7.199V0.448289L117.056 0.369179C117.636 0.562559 119.201 0.659249 121.75 0.659249H138.284C139.831 0.659249 140.745 0.580139 141.027 0.421919C141.308 0.2637 141.528 0.12306 141.686 0L141.765 0.02637V6.77708L141.686 6.85619C141.106 6.66281 139.541 6.56612 136.992 6.56612H133.036V35.8895Z" fill="#5D6F80"/>
<path d="M154.554 35.8895C153.71 35.784 152.084 35.7313 149.676 35.7313H147.566V0.553769C148.691 0.624089 149.931 0.659249 151.284 0.659249C152.638 0.659249 153.596 0.588929 154.159 0.448289L163.019 15.5055L171.537 0.448289C172.099 0.588929 173.171 0.659249 174.754 0.659249C176.336 0.659249 177.69 0.624089 178.815 0.553769V35.7313H176.705C174.297 35.7313 172.67 35.784 171.827 35.8895V12.262L163.204 27.6884L154.554 13.5014V35.8895Z" fill="#5D6F80"/>
<path d="M204.051 3.21713C204.42 2.44362 204.604 1.87227 204.604 1.50309C204.604 1.11633 204.569 0.835048 204.499 0.659249H213.992C213.799 0.870208 213.553 1.12512 213.254 1.42398C212.955 1.70526 212.621 2.04807 212.252 2.45241C211.373 3.43688 210.564 4.57958 209.826 5.8805L203.471 17.4833L209.404 28.6378L210.116 30.0881C211.452 32.8657 212.586 34.7468 213.518 35.7313H204.921C204.851 35.116 204.552 34.2897 204.024 33.2525L198.856 23.3374C195.217 30.7034 193.353 34.5007 193.265 34.7292C193.177 35.0281 193.107 35.3621 193.054 35.7313H184.458C185.108 35.0632 185.776 34.1227 186.462 32.9097L189.626 27.2929L195.243 17.7733L187.86 3.87638C187.068 2.38209 186.374 1.30971 185.776 0.659249H194.637C194.566 0.835048 194.531 1.02843 194.531 1.23939C194.531 1.71405 194.751 2.3733 195.19 3.21713L199.594 12.0247L204.051 3.21713Z" fill="#5D6F80"/>
</svg>
